<?xml version="1.0" ?><!DOCTYPE svg  PUBLIC '-//W3C//DTD SVG 1.1//EN'  'http://www.w3.org/Graphics/SVG/1.1/DTD/svg11.dtd'><svg height="512px" style="enable-background:new 0 0 512 512;" version="1.1" viewBox="0 0 512 512" width="512px" xml:space="preserve" xmlns="http://www.w3.org/2000/svg" xmlns:xlink="http://www.w3.org/1999/xlink"><g id="C_-_93_x2C__Contract_x2C__document_x2C__file_x2C__page_x2C__paper_x2C__sign_x2C__signing"><g><polygon points="161.507,86.176 161.507,72.98 134.963,72.98 134.957,242.375 161.507,242.375   "/><polygon points="159.682,251.746 136.782,251.746 148.233,285.937   "/><rect height="17.44" width="26.543" x="134.964" y="46.168"/><path d="M170.877,90.861V247.06c0,0.03-0.008,0.058-0.008,0.088c-0.006,0.278-0.029,0.556-0.084,0.833    c-0.003,0.015-0.005,0.029-0.008,0.044c-0.037,0.176-0.083,0.351-0.142,0.523l-17.958,53.633c-0.64,1.909-2.429,3.197-4.443,3.197    c-2.014,0-3.803-1.288-4.443-3.197l-17.962-53.633c-0.058-0.173-0.104-0.348-0.141-0.523c-0.002-0.013-0.005-0.025-0.008-0.038    c-0.003-0.014-0.003-0.028-0.006-0.042c-0.051-0.264-0.074-0.531-0.079-0.796c-0.001-0.03-0.009-0.059-0.009-0.089V90.861H81.107    l-0.064,374.971h296.08v-48.943c0-2.588,2.098-4.686,4.686-4.686h49.148V90.861H170.877z M202.118,148.815h152.665    c2.588,0,4.686,2.098,4.686,4.686s-2.098,4.686-4.686,4.686H202.118c-2.587,0-4.686-2.098-4.686-4.686    S199.531,148.815,202.118,148.815z M202.118,182.188h98.804c2.588,0,4.685,2.098,4.685,4.686s-2.097,4.686-4.685,4.686h-98.804    c-2.587,0-4.686-2.098-4.686-4.686S199.531,182.188,202.118,182.188z M202.118,215.563h98.804c2.588,0,4.685,2.098,4.685,4.686    s-2.097,4.686-4.685,4.686h-98.804c-2.587,0-4.686-2.098-4.686-4.686S199.531,215.563,202.118,215.563z M202.118,248.941h98.804    c2.588,0,4.685,2.098,4.685,4.686s-2.097,4.686-4.685,4.686h-98.804c-2.587,0-4.686-2.098-4.686-4.686    S199.531,248.941,202.118,248.941z M297.332,401.32H121.288c-2.587,0-4.686-2.098-4.686-4.686s2.098-4.686,4.686-4.686h176.044    c2.588,0,4.686,2.098,4.686,4.686S299.92,401.32,297.332,401.32z M390.704,367.949H121.288c-2.587,0-4.686-2.098-4.686-4.686    s2.098-4.686,4.686-4.686h269.416c2.588,0,4.685,2.098,4.685,4.686S393.292,367.949,390.704,367.949z"/><polygon points="386.494,459.243 424.342,421.574 386.494,421.574   "/></g></g><g id="Layer_1"/></svg>